# xmcd CD database file
#
# Track frame offsets:
#	150
#	12803
#	27944
#	39557
#	56034
#	79029
#	95237
#	116122
#	127521
#	139994
#	160858
#	182517
#	205185
#	229200
#
# Disc length: 3519 seconds
#
# Revision: 0
# Processed by: cddbd v1.4PL0 Copyright (c) Steve Scherf et al.
# Submitted via: CDex 1.50
#
DISCID=b60dbd0e
DTITLE=Chet Baker - 1959 Milano Sessions
DYEAR=1959
DGENRE=Jazz
TTITLE0=I Should Care (whit LEN MERCER and his Orchestra)
TTITLE1=Violets For Your Furs (whit LEN MERCER and his Orchestra)
TTITLE2=The Song Is You (whit LEN MERCER and his Orchestra)
TTITLE3=When I Fall In Love (whit LEN MERCER and his Orchestra)
TTITLE4=Goodbye (whit LEN MERCER and his Orchestra)
TTITLE5=Autumn In New York (whit LEN MERCER and his Orchestra)
TTITLE6=Angel Eyes (whit LEN MERCER and his Orchestra)
TTITLE7=Street Of Dreams (whit LEN MERCER and his Orchestra)
TTITLE8=Forgetful (whit LEN MERCER and his Orchestra)
TTITLE9=Deep In A Dream (whit LEN MERCER and his Orchestra)
TTITLE10=Lady Bird
TTITLE11=Cheryl Blues
TTITLE12=Tune Up
TTITLE13=Line For Lyons
EXTD=YEAR: 1959
EXTT0=
EXTT1=
EXTT2=
EXTT3=
EXTT4=
EXTT5=
EXTT6=
EXTT7=
EXTT8=
EXTT9=
EXTT10=
EXTT11=
EXTT12=
EXTT13=
PLAYORDER=
